<svg width="125" height="125" viewBox="0 0 125 125" fill="none" xmlns="http://www.w3.org/2000/svg">
<path d="M93.7868 0C97.765 0 101.58 1.58035 104.393 4.3934L120.607 20.6066C123.42 23.4196 125 27.235 125 31.2132V110C125 118.284 118.284 125 110 125H31.2132C27.235 125 23.4196 123.42 20.6066 120.607L4.3934 104.393C1.58035 101.58 0 97.765 0 93.7868V15C0 6.71573 6.71573 0 15 0H93.7868Z" fill="url(#paint0_linear_1_152)"/>
<rect x="25" y="25" width="95" height="95" rx="15" fill="#1E1E1E"/>
<path d="M58.57 38.2783C59.2248 39.0263 59.5557 40.0038 59.4901 40.9957C59.4245 41.9877 58.9676 42.913 58.22 43.5683L51.445 49.4983L58.22 55.4283C58.6048 55.7483 58.9217 56.1422 59.1519 56.5866C59.3821 57.0311 59.5211 57.5171 59.5605 58.0161C59.5999 58.515 59.5391 59.0169 59.3815 59.4919C59.2239 59.967 58.9729 60.4058 58.6431 60.7823C58.3133 61.1588 57.9115 61.4655 57.4613 61.6843C57.0111 61.9031 56.5217 62.0295 56.0218 62.0562C55.522 62.0828 55.0219 62.0091 54.551 61.8395C54.0801 61.6698 53.648 61.4076 53.28 61.0683L43.28 52.3183C42.8785 51.9663 42.5567 51.5327 42.3363 51.0463C42.1159 50.56 42.0019 50.0322 42.0019 49.4983C42.0019 48.9643 42.1159 48.4365 42.3363 47.9502C42.5567 47.4639 42.8785 47.0302 43.28 46.6783L53.28 37.9283C54.028 37.2735 55.0055 36.9426 55.9975 37.0082C56.9894 37.0738 57.9147 37.5307 58.57 38.2783ZM67.93 38.2783C67.2752 39.0263 66.9443 40.0038 67.0099 40.9957C67.0755 41.9877 67.5324 42.913 68.28 43.5683L75.055 49.4983L68.28 55.4283C67.8952 55.7483 67.5783 56.1422 67.3481 56.5866C67.1179 57.0311 66.9789 57.5171 66.9395 58.0161C66.9001 58.515 66.9609 59.0169 67.1185 59.4919C67.2761 59.967 67.5271 60.4058 67.8569 60.7823C68.1867 61.1588 68.5885 61.4655 69.0387 61.6843C69.4889 61.9031 69.9783 62.0295 70.4782 62.0562C70.978 62.0828 71.4781 62.0091 71.949 61.8395C72.4199 61.6698 72.852 61.4076 73.22 61.0683L83.22 52.3183C83.6215 51.9663 83.9433 51.5327 84.1637 51.0463C84.3841 50.56 84.4981 50.0322 84.4981 49.4983C84.4981 48.9643 84.3841 48.4365 84.1637 47.9502C83.9433 47.4639 83.6215 47.0302 83.22 46.6783L73.22 37.9283C72.472 37.2735 71.4945 36.9426 70.5025 37.0082C69.5106 37.0738 68.5853 37.5307 67.93 38.2783ZM45.75 69.4983C44.7554 69.4983 43.8016 69.8934 43.0983 70.5966C42.3951 71.2999 42 72.2537 42 73.2483C42 74.2428 42.3951 75.1967 43.0983 75.8999C43.8016 76.6032 44.7554 76.9983 45.75 76.9983H98.25C99.2446 76.9983 100.198 76.6032 100.902 75.8999C101.605 75.1967 102 74.2428 102 73.2483C102 72.2537 101.605 71.2999 100.902 70.5966C100.198 69.8934 99.2446 69.4983 98.25 69.4983H45.75ZM42 88.2483C42 87.2537 42.3951 86.2999 43.0983 85.5966C43.8016 84.8934 44.7554 84.4983 45.75 84.4983H98.25C99.2446 84.4983 100.198 84.8934 100.902 85.5966C101.605 86.2999 102 87.2537 102 88.2483C102 89.2428 101.605 90.1967 100.902 90.8999C100.198 91.6032 99.2446 91.9983 98.25 91.9983H45.75C44.7554 91.9983 43.8016 91.6032 43.0983 90.8999C42.3951 90.1967 42 89.2428 42 88.2483ZM45.75 99.4983C44.7554 99.4983 43.8016 99.8934 43.0983 100.597C42.3951 101.3 42 102.254 42 103.248C42 104.243 42.3951 105.197 43.0983 105.9C43.8016 106.603 44.7554 106.998 45.75 106.998H78.25C79.2446 106.998 80.1984 106.603 80.9016 105.9C81.6049 105.197 82 104.243 82 103.248C82 102.254 81.6049 101.3 80.9016 100.597C80.1984 99.8934 79.2446 99.4983 78.25 99.4983H45.75Z" fill="white"/>
<defs>
<linearGradient id="paint0_linear_1_152" x1="13.5" y1="3.5" x2="113.5" y2="116.5" gradientUnits="userSpaceOnUse">
<stop stop-color="#60DAFF"/>
<stop offset="1" stop-color="#00CD71"/>
</linearGradient>
</defs>
</svg>
